<?xml version="1.0" encoding="UTF-8"?>
<svg version="1.1" viewBox="0 0 2048 2048" width="1280" height="1280" xmlns="http://www.w3.org/2000/svg">
<path transform="translate(0)" d="m0 0h2048v2048h-2048z" fill="#FEFEFE"/>
<path transform="translate(1227,1066)" d="m0 0h159l214 1 172 1 40 1 1 1v746l-1 8-24 1-227 1h-391l-102-1-19-1-1-248v-178l1-144v-185l6-1 56-1z" fill="#2F98CC"/>
<path transform="translate(255,1068)" d="m0 0h714l1 2 1 23 1 342v325l-1 55-2 5-5 2-8 1-44 1h-627l-52-1-23-1-3-1-1-117v-79l1-541-1-7 1-7 7-1z" fill="#FEFEFE"/>
<path transform="translate(349,239)" d="m0 0h378l242 1 2 3v749l-5 1-59 1-218 1h-338l-145-1v-32l1-79v-308l1-333 2-1 28-1z" fill="#2F98CC"/>
<path transform="translate(1075,260)" d="m0 0h355l159 1h143l-3 5-13 15-14 15-9 11-24 28-11 13-12 14-13 15-10 13-12 16-14 19-12 15-13 18-11 16-10 14-13 18-13 20-26 39-11 18-11 17-15 24-11 18-10 17-12 20-5 7-2 5-5-3-6-5-7-8-15-14-8-7-14-12-15-12-18-12-14-7-13-4-13-2-18-1-24 1h-19l7 8 12 8 13 10 15 14 13 13 9 11 8 9 15 20 13 20 14 25 8 15 13 28 13 31 8 24 4 13 2 4 3-1 1-2h2l2-5 13-25 14-24 8-14 6-11 16-30 9-16 14-24 12-21 10-17 9-14 6-11 11-18 16-26 10-16 9-15 12-18 10-16 28-42 17-25 9-13 7-10 9-13 11-15 14-19 13-18 14-18 8-10 11-14 14-17 11-14 12-14 8-10 11-10h2l1 12-1 92v592l-2 2-686 2h-32l-3-1v-491l1-215 2-4z" fill="#FEFEFE"/>
<path transform="translate(1857,171)" d="m0 0h9l10 4 7 5-6 8-15 14-9 9-8 7-20 18-8 8-3 4v220l-1 524-151 1h-584l-20-1-7-1-1-1-1-80v-446l1-221 2-1 30-2 42-1 101-1 531-2 11-9 10-9 11-9 16-12 22-14 17-8zm-782 89-4 2-1 3-1 215v491l3 1h32l198-1 488-1 2-2v-592l1-98-1-6-4 2-12 11-8 10-14 17-11 14-11 13-10 13-12 15-9 12-14 19-13 18-11 15-10 14-12 18-10 14-32 48-15 23-10 16-6 9-9 15-10 16-13 21-13 22-8 13-9 15-14 24-15 26-13 23-15 28-9 16-14 25-12 21-8 15v2h-2l-2 3h-2l-4-9-7-24-10-25-8-18-16-34-13-23-9-15-11-16-10-13-9-11-9-10-7-8-16-16-11-9-14-10-9-7-4-5h19l29-1 21 2 15 4 13 6 12 7 16 12 11 9 15 13 13 12 10 9 7 8 7 5 2-2 4-7 15-25 10-17 25-40 16-25 10-16 34-51 9-13 13-18 11-16 12-17 11-14 14-18 10-14 14-18 11-13 12-14 13-15 9-11 9-10 9-11 12-14 12-13 13-15 1-3h-143l-179-1z" fill="#1581C4"/>
<path transform="translate(255,1068)" d="m0 0h714l1 2 1 23 1 342v325l-1 55-2 5-5 2-8 1-44 1h-627l-52-1-23-1-3-1-1-117v-79l1-541-1-7 1-7 7-1zm194 23-220 1-1 1v153l1 186v361l1 6h538l143 1h30l6-2v-446l1-156v-97l-2-6-6-2z" fill="#1481C4"/>
<path transform="translate(1857,171)" d="m0 0h9l10 4 7 5-6 8-15 14-9 9-8 7-20 18-8 8-5 6-8 7-9 11-12 12-6 5-8 10-14 17-11 14-11 13-10 13-12 15-9 12-14 19-13 18-11 15-10 14-12 18-10 14-32 48-15 23-10 16-6 9-9 15-10 16-13 21-13 22-8 13-9 15-14 24-15 26-13 23-15 28-9 16-14 25-12 21-9 17h-2l-2 4-3-1-4-9-7-24-10-25-8-18-16-34-13-23-9-15-11-16-10-13-9-11-9-10-7-8-15-15-11-9-14-10-9-7-4-4v-2l48-2 21 2 15 4 13 6 12 7 16 12 11 9 15 13 13 12 10 9 7 8 7 5 8-13 12-20 10-17 25-40 16-25 10-16 34-51 9-13 13-18 11-16 12-17 11-14 14-18 10-14 14-18 11-13 12-14 13-15 9-11 9-10 9-11 12-14 12-13 13-15 1-2h2l2-4 8-7 14-16 10-8 10-9 11-9 16-12 22-14 17-8z" fill="#4E4E53"/>
<path transform="translate(1227,1066)" d="m0 0h159l214 1 172 1 40 1 1 1v746l-1 8-24 1-227 1h-391l-102-1-19-1-1-248v-178l1-144v-185l6-1 56-1zm-99 14-21 1-14 2-4 3-8 2-8 6-4 5-3 12-1 2v31l-1 4 1 6v67l1 22v25l1 11v44l-1 7v110l-1 16 1 4-1 22 1 5v73l1 16v49l1 5-1 8v27l1 26-1 4 2 11-1 10v12l2 10 1 14-1 4 6 17 1 4-1 4 7 10 6 3 9 4 6 3 10-1h10l-1 4 1 3 5-1 1-4 2 1-1 3 5 2 3-1v-2l5-2 8 2h8l10 1h9l7-2v2h7l2-1h13l3 1 14-2h4l1 2 2-3 6 2h7l3 2 12-1 6-1 1 1h11l1 1h8l9-1 12 1 4 1 2-4 7 1h9l5 2 18 1 6-1 9 1h7l3 3 3-1 1-2h5l4 2 16-1 1 2h40l10-1 1 1 10-1 7 1h34l12-1h47l12-1h12l15-1 7 1 19-2 1 1h6l8-2 5 2 18-1 2 1h44l6-1h8l7-2h6l3-2 9 1 2-6 5-1 4 1 4-3v-2h2l5-5 8-10 3-9 2-9 2-26v-50l1-31v-141l-1-88v-115l1-14v-165l-1-5v-3l-3-10-4-7-7-5-6-2-4-2h-7v-2l-25-2-23-1-30-1h-21l-20-1h-12l-21-1h-46l-9-1-49-1h-96l-2-1h-59l-15-1h-44l-27-1h-49l-32-2h-23z" fill="#1380C4"/>
<path transform="translate(349,239)" d="m0 0h378l242 1 2 3v749l-5 1-59 1-218 1h-338l-145-1v-32l1-79v-308l1-333 2-1 28-1zm127 15-11 1h-75l-15 1-20-1h-53l-6 1h-17l-16 1-5 2-8 1-6 2-5 2v2l-5 1-3 3v3h-2l-2 5-2 18-1 16v7l-1 4v13l1 3-1 8v18l1 8-1 2v29l1 10-1 9 1 17-1 15 1 8v38l1 4v33l1 11-1 13v20l1 8-1 18 1 12-1 14 1 6v27l1 6-1 9v13l1 8-1 4v14l1 1-1 13v9l1 6v34l1 13v11l1 21-1 7 2 18-2 12v30l1 5v10l2 18 3 6 3 10 6 7 5 5 12 4 1 2 9 1 16 2 5 3 7 1 5-1h16l3-1h8l4 2 11-2h6l7 1 3-1h15l17-1 11 1h10l5 1h12l5 1h24l13 2v-2l2 1 10 1 7-2 18 2h12l7-1 13 2 5 1h6l4 1 4-2 6-1h8l4 1 8-1v-2l6 2h22l8-2 3 2 8-1 7-1 37-2 7 1 15-1 8 2 5-2 10 1 7 1 6-2 18 1 2 1 14-1 9 1h50l4 2 7-1 7 2 1 1h6v-2h4 6l6 1 8-1h3l1 2 3-1 20-1 9-2 8-5v2l5-2 2-1v-2l4-2 9-10 3-10 8-10 4-6v-7l2-7 1-12 1-3 1-14 1-8v-15l1-24v-29l-1-8v-31l-1-9v-17l1-10-1-4v-113l1-19v-77l-1-8v-9l1-11v-147l-1-13 1-16-1-3v-7l-3-18-3-9-11-9-12-4-16-2-19-1-16-1h-72l-58-1h-39l-18-1h-23l-39-1-17-1h-35l-27-1-22 1h-39z" fill="#1380C4"/>
<path transform="translate(255,1068)" d="m0 0h714l1 2 1 23v293l-2 2-2-8-3-24-1-3h-3l-3 11 1 6-2 6-2 14-4 3-2-10-1-284-1-5-6-2h-491l-220 1-1 148-1 26-2 7v6l-2 9-1 11-2 52v20l-1 22v175l1 51v80l-2 32-1 12-1 20v23l-2 17-1 8 2 3-1 6h-7l-1-117v-79l1-541-1-7 1-7 7-1z" fill="#1480C4"/>
<path transform="translate(491,1331)" d="m0 0h2v53l-1 5-16 8-28 12-38 15-22 9-24 10-12 6-1 2 5 1 12 5 37 14 31 13 36 16 15 6 6 7v13l-1 19v21l-2 1-10-2-26-11-32-13-28-11-39-16-41-17-27-12-27-11-17-6-2-2-2-21v-11l5-4 27-12 33-14 36-15 31-12 48-19 39-15z" fill="#4E4E53"/>
<path transform="translate(686,1330)" d="m0 0 10 3 28 11 48 20 43 18 42 17 30 13 23 10 12 4 9 5 2 5 1 6v22l-6 5-8 4-20 8-53 23-52 21-25 10-33 13-35 14-15 5h-2v-59l4-3 25-10 27-11 25-10 26-10 30-12h5v-2l-7-2-10-5-26-11-65-26-21-9-11-6-3-5v-28l1-21z" fill="#4E4E53"/>
<path transform="translate(615,1294)" d="m0 0h35l18 1 2 1-1 9-8 27-12 34-15 43-14 38-26 70-19 53-9 21-3 5-2 1h-55l1-8 12-35 15-43 17-49 13-35 11-29 14-37 14-39 9-24z" fill="#4E4E53"/>
<path transform="translate(1540,237)" d="m0 0h215l-4 6-8 9-8 7-3 3h-143l-179-1h-335l-4 1-2-8-2-5 3-6-8-1v-1l20-1 42-1 101-1z" fill="#1481C4"/>
<path transform="translate(1052,242)" d="m0 0h25v1h-7l-2 8 3 5v6l-2 3-1 12v65l-1 41v51l1 178v199l-1 33-1 13h-2v10l-3 17v7l-1 5-2 14-1 1-1 24v16l1 4-1 5-1 10-1 2h-2l-1-28-1-87v-614z" fill="#0867B2"/>
<path transform="translate(214,1069)" d="m0 0h10v3l-2 7v6l2 5 4 2v149l-1 26-2 7v6l-2 9-1 11-2 52v20l-1 22v175l1 51v80l-2 32-1 12-1 20v23l-2 17-1 8 2 3-1 6h-7l-1-117v-79l1-541-1-7 1-7z" fill="#0A6BB4"/>
<path transform="translate(349,239)" d="m0 0h378l242 1 2 3-1 19h-1v-6h-2v-3l-4-1-5-2-9-1h-25l-47-1-17-1h-62l-2-1h-43l-2 1-13-1h-27l-9-1h-45l-23-1-38-1h-153l-3 1h-23l-5 1-5-1-16 1h-113l-17 1-27 2-12 1v2h-3l-1 5-1 8 1 10v24l-1 109v179l-1 74v70l-1 209-1 24v11l-1 6 1 5v4l1 4-9 1v-32l1-79v-308l1-333 2-1 28-1z" fill="#0A69B3"/>
<path transform="translate(947,1196)" d="m0 0h1l1 187 1 8 4-1 1-14 2-7-1-5 3-11 4-1 2 4 3 24 1 6h2l1 49v325l-1 55h-1l-1-11-3 5-10 2-3-4-1-5 2-7 1-5v-16l1-21 1-18 2-19v-20l-1-23-1-18v-14l-1-8v-13l-1-13v-19l-1-26v-23l-1-5-1-8h-2v-7l-1 21-1 102v38h-1l-1-21v-307z" fill="#2F98CC"/>
<path transform="translate(1812,249)" d="m0 0h1l1 8v211l-1 190-2-2v-7l-1-3-1 2v14l-2 9-1 29-4-2-1-12v-44l-1-5v-37l-1-4v-3l1-4-1-5v-25l-1-32 1-2-2-1 1-6-2-1-1 8-1 59-1 103h-1v-259l1-141 1-5-1-6v-8l5-5 11-12z" fill="#127FC3"/>
<path transform="translate(1795,514)" d="m0 0 1 3 3 1-1 6 1 4 1 44v15l1 3-1 3v3l1 6v36l1 10v40l1 8 2 3 1-28 2-12v-12l2-3 2 6v225l-1 10-4-1-1-16-1-14-1-3 1-5-3-2 1 6-2 21v43l-1 4-1 22-1 14-3 7h-2l-1-56v-218l1-110 1-52z" fill="#0867B2"/>
<path transform="translate(2047,1953)" d="m0 0h1v95h-96l1-3 11-7 19-9 11-7 12-9 10-11 10-14 10-18 9-14z"/>
<path transform="translate(0,1955)" d="m0 0 5 5 9 16 6 11 8 11 12 14 11 8 13 8 25 14 7 5v1h-96z"/>
<path transform="translate(1957)" d="m0 0h91v92l-3-4-13-22-9-13-11-12-10-10-13-9-18-11-11-7z"/>
<path transform="translate(216,1470)" d="m0 0 2 2 1 17v80l1 51v80l-2 32-1 12-1 20v23l-2 17-1 8 2 3-1 6h-7v-142l1-112h2v-24l3-54 1-7-1-7 1-3h2z" fill="#0260B3"/>
<path transform="translate(0)" d="m0 0h88l-1 3-15 9-16 10-16 12-13 15-15 25-9 14-3 2z"/>
<path transform="translate(1052,242)" d="m0 0h13l-4 2-1 3-2 2-1 4 1 4v6 3l-1 7-1 1v56l-2 115v104l1 16v25l1 62 2 52 1 18-1 4 1 12-1 5 1 5 1 7-1 4 2 5-2 7v14l-2 32v16h-2v51l-1 9v20l-2 4-1-3-1-57v-614z" fill="#015EB2"/>
<path transform="translate(1470,1068)" d="m0 0h302l40 1 1 1v75l-1 270-2-3-1-21-1-66v-129l-1-31 1-1-1-17v-44l-2-12-3-8-2-6h-20l-26-1-35-1h-36l-25-1h-15l-28-1-22-1-42-1h-32l-51-1z" fill="#0A6AB3"/>
<path transform="translate(1049,1069)" d="m0 0h30v1h-18l-3 14-2 2v200l-1 41v17l-1 43v15l-1 10-1 61-1 69h-1l-1-56z" fill="#0969B3"/>
<path transform="translate(209,1098)" d="m0 0h2v7l2 7v53l1 16v9l1 4-1 1v14l1 5-1 3 1 13v11l1 5v15l1 17v34l1 17 1 31 1 4-1 29-1 7v6l-3 3-2-12v-20l-1-9v-12l-1-6-1-31-1 8h-1v-222z" fill="#015EB2"/>
<path transform="translate(209,1311)" d="m0 0h1l1 8 1 33 1 5v16l1 10v14l2 10 1-2v-10l2-1v89h-1l-1-11h-3l1 15-1 2-2 36-2 42h-2v112l-1 25h-1v-79l1-270z" fill="#0E6FB7"/>
<path transform="translate(208,450)" d="m0 0 2 3v18l1 7v340l-1 67-2 3-1-76v-237z" fill="#4A5762"/>
<path transform="translate(1070,262)" d="m0 0 1 3-1 215-1 490h-1l-1-358-1-191v-43l1-44v-60l1-9z" fill="#2690C9"/>
<path transform="translate(228,1246)" d="m0 0h1l1 186v191l-1 162h-1l-1-233-2-41-1-5 1-5-1-2-1-19v-67l1-2v-8l1-1 1-38 1-16z" fill="#3099CD"/>
<path transform="translate(1585,978)" d="m0 0 6 2 1 2 2-3 13-1 5 4 3-1v-2l4 1 2 2 5-1 10 2h11 3l7 2 1 3 15 1v1l5 1v1h-146v-1l-10-1 4-4h3l3-1 25-2h18l3-2 6 1v-2l-2-1z" fill="#0867B2"/>
<path transform="translate(1813,257)" d="m0 0h1v211l-1 88h-1l-1-123-1-51-2-37v-8l-2-10-1-15-1-24v-12l2-12 7-2z" fill="#3099CD"/>
<path transform="translate(1052,242)" d="m0 0h13l-4 2-1 3-2 2-1 4 1 4v6 3l-1 7-1 1v56l-2 114-1 1-1 107h-1l-1-309z" fill="#0360B3"/>
<path transform="translate(217,1524)" d="m0 0 2 1v44l1 51v80l-2 32-1 12-1 20v23l-2 17-1 8 2 3-1 6-3-1-1-9v-21l1-16 1-13 1-8v-9l1-8v-22l1-58v-34l1-24v-31z" fill="#0867B2"/>
<path transform="translate(1653,253)" d="m0 0 10 1h7l6 1 34 1h24l2 2-4 4h-143l-159-1v-1l186-1 14-2 7-2h8l2-1z" fill="#3099CD"/>
<path transform="translate(1792,269)" d="m0 0h1l2 16-1 2-1 141-1 481h-1v-533l1-104-2-1z" fill="#3099CD"/>
<path transform="translate(1807,255)" d="m0 0 1 2 2 1-1 4h-3l-2 5-2 23v57l-1 42-1 11h-3v-97l-1-5 1-3-2-1v-16l-2-10 5-5z" fill="#0867B2"/>
<path transform="translate(1811,1677)" d="m0 0h1l1 139-1 8h-34v-1h20v-2h3l1-4 4-2 1-6 1-18v-61l1-46z" fill="#0867B1"/>
<path transform="translate(1274,971)" d="m0 0h453v1l-120 1-1 1h-5l-2-2-1 2-1-1h-9l-6 1-3-1h-21l-3 1v-2h-281z" fill="#0665B2"/>
<path transform="translate(1070,262)" d="m0 0 1 3-1 2-1 207-2 1-1-54v-43l1-44v-60l1-9z" fill="#1380C4"/>
<path transform="translate(631,1083)" d="m0 0 4 1 17 1h30l15-1 5 1h11l4 2-7 1h-150l1-2 9-1h29l14-1 18 1z" fill="#0867B2"/>
<path transform="translate(226,1098)" d="m0 0h1l1 121-1 15-2-2-1-17-1-11v-52l1-7v-32l1-13z" fill="#015EB2"/>
<path transform="translate(969,1634)" d="m0 0h1l1 62v79l-1 11h-1l-1-24v-3-21l-1-18 1-9-1-14v-9l1-9v-44z" fill="#1380C4"/>
<path transform="translate(1812,249)" d="m0 0h1v13l-6 2-1 3h-2l1-5 3-2h1l-2-4-4 4-2-1 9-9z" fill="#1580C3"/>
<path transform="translate(969,973)" d="m0 0h1l1 19h-15l4-3 8-7z" fill="#0967B1"/>
<path transform="translate(208,450)" d="m0 0 2 3v18l1 4-2 7h-1z" fill="#425263"/>
<path transform="translate(958,1069)" d="m0 0h8l3 1v7l-4-1-1-5-6-1z" fill="#0766B2"/>
<path transform="translate(1050,1462)" d="m0 0 2 2v9l-1 7-2 1v-18z" fill="#096BB5"/>
<path transform="translate(218,1363)" d="m0 0 2 1-1 29-2-3v-19z" fill="#0867B2"/>
<path transform="translate(1665,247)" d="m0 0 4 2-2 4-7-2-3-3z" fill="#3099CD"/>
</svg>
